<svg data-name="Layer 1" xmlns="http://www.w3.org/2000/svg" width="808.418" height="712.528"><path d="m519.176 643.375-1.984-27.589a89.244 89.244 0 0 0-41.898-9.396c20.431 15.793 18.795 47.358 32.945 68.96a53.68 53.68 0 0 0 40.027 23.722l17.004 9.782a89.952 89.952 0 0 0-20.944-72.346 86.888 86.888 0 0 0-16.368-14.395c-3.716 10.671-8.782 21.262-8.782 21.262Z" fill="#f2f2f2"/><path id="a8455189-ed55-4a18-ae95-69e4c9a5ea4d-52" data-name="f02c4e45-f306-4b42-b3ad-5ddd3016d7d2" d="M613.681 806.264h389.281a1.247 1.247 0 0 0 0-2.494h-389.28a1.247 1.247 0 0 0 0 2.494Z" transform="translate(-195.79 -93.736)" fill="#ccc"/><path d="M170.04 414.813v.534h.372a5.31 5.31 0 0 1-.372-.534Zm2.863-226.337a192.998 192.998 0 0 0-40.001 117.867q.008 9.738.954 19.2c.097 1.084.21 2.168.356 3.235a192.546 192.546 0 0 0 32.82 87.362 193.528 193.528 0 0 0 2.118 3.024 193.843 193.843 0 0 0 26.308 29.851c78.653 72.628 201.29 67.743 273.917-10.91a131.545 131.545 0 0 0 3.235-3.574 193.665 193.665 0 0 0 8.492-246.055 117.922 117.922 0 0 0-2.54-3.235q-2.87-3.615-5.952-7.085a131.502 131.502 0 0 0-3.235-3.575 193.513 193.513 0 0 0-142.373-62.338c-1.86 0-3.704.032-5.548.08q-1.844.05-3.688.146a193.749 193.749 0 0 0-142.324 72.772 117.759 117.759 0 0 0-2.54 3.235Zm-2.491 226.871a5.327 5.327 0 0 1-.373-.534v.534h.373Z" fill="#fff"/><path d="m168.681 412.824.55-1.116 41.182-82.93v-.016l1.601-3.219v-.016l68.032-137.051v-.016l1.602-3.22.015-.015 34.454-69.44 1.65-3.316q1.844-.097 3.687-.145l-1.633 3.3-34.55 69.6v.017l-1.602 3.219v.016l-69.811 140.626-.016.016-41.182 82.994-1.617 3.235-.26.534-1.633 3.283a193.137 193.137 0 0 1-2.119-3.024Z" fill="#3f3d56"/><path d="M213.162 325.543v3.235h-78.95a70 70 0 0 1-.356-3.235ZM335.856 350.778v-3.235h78.95c.146 1.068.26 2.151.356 3.235Z" fill="#3f3d56"/><path d="M401.892 339.507h3.235v78.95a70.016 70.016 0 0 1-3.235.357Z" fill="#3f3d56"/><path d="M481.102 188.476a117.9 117.9 0 0 0-2.54-3.235h-5.952v-7.085a131.573 131.573 0 0 0-3.235-3.575v10.66H175.442a117.668 117.668 0 0 0-2.54 3.235h296.473v249.63a131.682 131.682 0 0 0 3.235-3.575V188.476Z" fill="#3f3d56"/><path fill="#3f3d56" d="M170.036 412.11h300.957v3.235H170.036z"/><path d="M170.04 414.813v.534h.372a5.31 5.31 0 0 1-.372-.534Zm2.863-226.337a192.998 192.998 0 0 0-40.001 117.867q.008 9.738.954 19.2c.097 1.084.21 2.168.356 3.235a192.546 192.546 0 0 0 32.82 87.362 193.528 193.528 0 0 0 2.118 3.024 193.843 193.843 0 0 0 26.308 29.851c78.653 72.628 201.29 67.743 273.917-10.91a131.545 131.545 0 0 0 3.235-3.574 193.665 193.665 0 0 0 8.492-246.055 117.922 117.922 0 0 0-2.54-3.235q-2.87-3.615-5.952-7.085a131.502 131.502 0 0 0-3.235-3.575 193.513 193.513 0 0 0-142.373-62.338c-1.86 0-3.704.032-5.548.08q-1.844.05-3.688.146a193.749 193.749 0 0 0-142.324 72.772 117.759 117.759 0 0 0-2.54 3.235Zm-35.44 140.302c-.146-1.067-.259-2.151-.372-3.235a190.897 190.897 0 0 1 39.888-137.067 162.397 162.397 0 0 1 2.604-3.235 190.621 190.621 0 0 1 136.534-69.456 138.58 138.58 0 0 1 3.704-.162q3.566-.145 7.181-.145a190.324 190.324 0 0 1 142.373 63.891 98.792 98.792 0 0 1 3.235 3.72 55.838 55.838 0 0 1 1.812 2.152c.89 1.067 1.746 2.151 2.604 3.235a190.48 190.48 0 0 1-4.416 241.121 98.8 98.8 0 0 1-3.235 3.72 190.643 190.643 0 0 1-33.09 29.439c-86.26 60.372-205.13 39.385-265.502-46.875-.13-.178-.259-.356-.372-.534a5.31 5.31 0 0 1-.372-.534q-.703-.995-1.358-1.99a189.167 189.167 0 0 1-31.218-84.045Zm32.949 86.57a5.327 5.327 0 0 1-.373-.535v.534h.373Z" fill="#ccc"/><path d="M550.55 514.821H356.9a8.94 8.94 0 0 1-8.932-8.93v-94.357a8.94 8.94 0 0 1 8.931-8.931h193.65a8.941 8.941 0 0 1 8.931 8.93v94.358a8.941 8.941 0 0 1-8.93 8.93Z" fill="#cacaca"/><path d="M465.25 507.229c-42.41 0-86.633-.405-103.133-.668a8.32 8.32 0 0 1-8.148-8.286V411.54a2.94 2.94 0 0 1 2.93-2.938h193.644a2.94 2.94 0 0 1 2.937 2.93v58.847a36.714 36.714 0 0 1-36.095 36.57c-15.378.2-33.588.279-52.135.279Z" fill="#e4e4e4"/><path d="M530.557 462.825H372.993a4.963 4.963 0 0 1-4.666-3.29l-17.833-50.032a4.953 4.953 0 0 1 4.658-6.616l196.958-.275h.007a4.953 4.953 0 0 1 4.552 6.904l-.27-.116.27.116-21.56 50.307a4.947 4.947 0 0 1-4.552 3.002ZM418.662 497.5h-54.333a5.048 5.048 0 0 1 0-10.095h54.333a5.048 5.048 0 0 1 0 10.096Z" fill="#cacaca"/><circle cx="453.431" cy="462.825" r="12.338" fill="#3f3d56"/><path d="M62.37 25.513A139.809 139.809 0 0 1 257.178 59.32c44.458 63.13 89.07 228.674 57.578 324.575C220.827 284.68 76.523 274.37 28.562 220.32-22.686 162.565-.76 69.97 62.37 25.513Z" fill="#0d42ff"/><circle id="faf5c3b1-f7bb-4793-8f76-a694569c182e" data-name="b262ea8c-1946-46c9-a449-3a1996c39394" cx="144.772" cy="122.871" r="45.596" fill="#fff"/><circle id="e618366e-6f5c-4381-83a5-490aecbf791d" data-name="bcc29a3a-8123-4529-80aa-6f70df2823cf" cx="353.301" cy="403.688" r="29.865" fill="#0d42ff"/><path d="M291.78 206.086a45.595 45.595 0 1 0 78.75 45.98 45.59 45.59 0 0 1-69.417-57.288 45.595 45.595 0 0 0-9.333 11.308Z" transform="translate(-195.79 -93.736)" fill="#231f20" opacity=".2" style="isolation:isolate"/><path d="M224.267 314.271c47.961 54.05 192.265 64.36 286.194 163.576a193.394 193.394 0 0 0 6.752-27.759C423.33 359.892 287.06 348.493 240.72 296.271c-41.475-46.74-35.019-116.294 2.412-164.69-51.335 47.586-65.83 129.763-18.866 182.69Z" transform="translate(-195.79 -93.736)" fill="#231f20" opacity=".2" style="isolation:isolate"/><path d="m624.629 411.505-19.363-5.898c-8.429 10.163-15.418 39.602-15.418 39.602l-26.501 43.064a8.937 8.937 0 1 0 12.742 8.762l40.109-48.693Z" fill="#ffb6b6"/><path d="m624.258 416.205 3.579-29.312-8.022-13.396a16.433 16.433 0 0 0-15.452-7.881 16.394 16.394 0 0 0-14.9 16.704c.302 12.599 2.287 28.53 10.032 32.884l.078.044Z" fill="#0d42ff"/><path fill="#ffb6b6" d="m678.959 681.066-11.611 5.604-27.145-42.12 17.138-8.272 21.618 44.788z"/><path d="m685.216 692.981-35.707 17.236-.218-.451a15.433 15.433 0 0 1 7.189-20.607l4.134-8.097 14.558-.926 3.117-1.505Z" fill="#2f2e41"/><path fill="#ffb6b6" d="m592.527 696.767-12.893-.001-6.134-49.733 19.03.001-.003 49.733z"/><path d="m592.981 710.217-39.649-.001v-.502a15.433 15.433 0 0 1 15.433-15.432l7.243-5.494 13.513 5.495h3.461ZM579.749 466.114 564.974 568l4.021 13.406-5.276 9.495 7.748 71.464-3.145 6.925 8.788 5.42h17.881l.95-75.49 4.416-11.084v-6.108l8.992-46.032 2.075 71.66 2.87 5.537c10.694 24.261 25.099 32.205 35.282 50.34l17.883-9.686-.375-7.224c3.592-1.82-5.394-7.135-6.258-11.068l-1.564-7.042-10.431-21.608-.398-7.61 2.855-51.756-1.344-69.696-23.456-17.936Z" fill="#2f2e41"/><circle cx="602.964" cy="319.3" r="23.232" fill="#ffb6b6"/><path d="m568.637 510.067-.34-.118 4.498-14.614a11.904 11.904 0 0 1 2.147-11.1c-.728-1.258-3.726-7.202 1.157-12.253-.292-1.473-1.76-10.19 3.363-14.45 0 0 9.943-75.356 15.52-95.26.16-1.456-1.145-13.345 6.356-13.811 3.955-.246 9.892-.622 18.8-1.196 1.151-.083 1.826 1.86 2.848 5.024.691 2.14-2.868 5.064-2.007 5.016l.061-.004.06.015a37.455 37.455 0 0 1 27.695 38.278l-2.648 45.026c.401 1.81 8.837 53.156 6.631 58.668-1.25 3.126.882 5.074 2.44 6.496.802.733 1.381 1.262 1.3 1.84a.965.965 0 0 1-.6.71c-1.41.704-.63 5.535.192 8.414l.083.294-.272.14c-.314.161-25.525-11.401-56.153-11.402-11.544 0-18.217 8.792-31.131 4.287Z" fill="#0d42ff"/><path d="M621.376 333.584a1.935 1.935 0 0 1-.987-1.229l-.331-1.349 1.018 1.061a4.021 4.021 0 0 0-1.177-6.873 8.438 8.438 0 0 0-1.375-.334 9.511 9.511 0 0 1-1.439-.347 6.562 6.562 0 0 1-3.938-5.535 17.389 17.389 0 0 1 .69-6.243 85.018 85.018 0 0 1-30.844-.928 14.316 14.316 0 0 1-4.426-1.74 17.148 17.148 0 0 1-6.058-6.095 1.83 1.83 0 0 1 .249-2.156 1.991 1.991 0 0 1 1.447-.638l-.371-1.004a1.893 1.893 0 0 1 2.123-2.517l1.315.246-.127-.873a1.892 1.892 0 0 1 2.54-2.043 2.085 2.085 0 0 0 2.776-1.531l.452-2.196.046-.117c2.225-3.706 6.498-6.4 11.725-7.391 4.662-.884 9.421-.437 14.025-.006a12.84 12.84 0 0 1 5.607 1.416 4.9 4.9 0 0 1 2.444 4.524c4.533-1.394 9.397 1.383 11.802 4.881 2.859 4.161 3.32 9.382 3.404 13.464.197 9.651-1.79 17.547-5.909 23.47a5.53 5.53 0 0 1-2.55 2.266 2.616 2.616 0 0 1-.843.136 2.712 2.712 0 0 1-1.288-.32Z" fill="#2f2e41"/><path d="m622.211 425.058-17.053-10.905c-10.859 7.51-25.534 33.97-25.534 33.97l-37.141 34.313a8.937 8.937 0 1 0 9.905 11.877l51.762-36.06Z" fill="#ffb6b6"/><path d="m620.585 429.483 11.358-27.258-4.108-15.064a16.433 16.433 0 0 0-12.752-11.76 16.394 16.394 0 0 0-18.855 12.064c-3.11 12.212-5.5 28.088.784 34.37l.063.064Z" fill="#0d42ff"/></svg>